HIERARCHY
ROOT Hips
{
	OFFSET 0.00000 0.00000 0.00000
	CHANNELS 6 Xposition Yposition Zposition Zrotation Yrotation Xrotation 
	JOINT RightUpLegDummy
	{
		OFFSET 0 0 0
		CHANNELS 3 Zrotation Yrotation Xrotation
		JOINT RightUpLeg
		{
			OFFSET -3.52197 -3.41223 0.04002
			CHANNELS 3 Zrotation Yrotation Xrotation
			JOINT RightLeg
			{
				OFFSET 0.00006 -17.42390 1.60435
				CHANNELS 3 Zrotation Yrotation Xrotation
				JOINT RightFoot
				{
					OFFSET 0.06154 -16.50078 -1.63900
					CHANNELS 3 Zrotation Yrotation Xrotation
					JOINT RightToes
					{
						OFFSET 0.00298 -1.73825 3.34613
						CHANNELS 3 Zrotation Yrotation Xrotation
						End Site
						{
							OFFSET 0.00480 -0.05416 3.85043
						}
					}
				}
			}
		}
	}
	JOINT SpineDummy
	{
		OFFSET 0 0 0
		CHANNELS 3 Zrotation Yrotation Xrotation
		JOINT Spine
		{
			OFFSET 0.00000 4.68130 0.00000
			CHANNELS 3 Zrotation Yrotation Xrotation
			JOINT Spine1
			{
				OFFSET -0.00000 10.10138 0.05002
				CHANNELS 3 Zrotation Yrotation Xrotation
				JOINT HEadDummy
				{
					OFFSET 0 0 0
					CHANNELS 3 Zrotation Yrotation Xrotation
					JOINT Head
					{
						OFFSET -0.00000 3.43865 0.00438
						CHANNELS 3 Zrotation Yrotation Xrotation
						End Site
						{
							OFFSET -0.11417 5.02924 0.98962
						}
					}
				}
				JOINT LeftShoulder1Dummy
				{
					OFFSET 0 0 0
					CHANNELS 3 Zrotation Yrotation Xrotation
					JOINT LeftShoulder1
					{
						OFFSET 3.53937 -0.14262 -0.08662
						CHANNELS 3 Zrotation Yrotation Xrotation
						JOINT LeftArm
						{
							OFFSET 4.04833 -0.00133 0.12681
							CHANNELS 3 Zrotation Yrotation Xrotation
							JOINT LeftForeArm
							{
								OFFSET 10.33880 -0.01036 -0.55515
								CHANNELS 3 Zrotation Yrotation Xrotation
								JOINT LeftHand
								{
									OFFSET 8.69677 0.07543 0.40060
									CHANNELS 3 Zrotation Yrotation Xrotation
									End Site
									{
										OFFSET 5.28377 -0.21905 0.59205
									}
								}
							}
						}
					}
				}
				JOINT RightShoulderDummy
				{
					OFFSET 0 0 0
					CHANNELS 3 Zrotation Yrotation Xrotation
					JOINT RightShoulder
					{
						OFFSET -3.53937 -0.14262 -0.08660
						CHANNELS 3 Zrotation Yrotation Xrotation
						JOINT RightArm
						{
							OFFSET -4.04833 -0.00133 0.12683
							CHANNELS 3 Zrotation Yrotation Xrotation
							JOINT RightForeArm
							{
								OFFSET -10.37987 -0.01039 -0.55511
								CHANNELS 3 Zrotation Yrotation Xrotation
								JOINT RightHand
								{
									OFFSET -8.67398 0.07538 0.40058
									CHANNELS 3 Zrotation Yrotation Xrotation
									End Site
									{
										OFFSET -5.24810 -0.21916 0.59204
									}
								}
							}
						}
					}
				}
			}
		}
	}
	JOINT LeftUpLegDummy
	{
		OFFSET 0 0 0
		CHANNELS 3 Zrotation Yrotation Xrotation
		JOINT LeftUpLeg
		{
			OFFSET 3.52197 -3.41223 0.04002
			CHANNELS 3 Zrotation Yrotation Xrotation
			JOINT LeftLeg
			{
				OFFSET -0.00012 -17.42399 1.60337
				CHANNELS 3 Zrotation Yrotation Xrotation
				JOINT LeftFoot
				{
					OFFSET -0.09972 -16.50070 -1.63802
					CHANNELS 3 Zrotation Yrotation Xrotation
					JOINT LeftToes
					{
						OFFSET -0.01575 -1.73823 3.34611
						CHANNELS 3 Zrotation Yrotation Xrotation
						End Site
						{
							OFFSET 0.03150 -0.01868 3.85031
						}
					}
				}
			}
		}
	}
}
MOTION
Frames: 19
Frame Time: 0.033333
62.3156 38.8782 7.4556 178.1740 52.0553 173.6850 0.0000 0.0000 0.0000 -0.5079 -7.0078 0.7585 -5.5036 -20.8527 13.5895 4.7061 -0.1565 -8.2841 0.0000 0.0000 -0.0000 0.0000 0.0000 0.0000 2.2857 -0.5027 -6.8298 15.4034 -5.8484 18.9892 0.0000 0.0000 0.0000 -10.1658 -19.5338 -3.3467 0.0000 0.0000 0.0000 -13.6022 -3.5491 1.4506 -66.8510 -18.4545 28.3434 -0.6735 -29.0006 -1.2675 15.3539 -4.6324 -1.2920 0.0000 0.0000 0.0000 18.6797 0.7308 1.0691 56.6392 26.8933 25.1125 177.2247 45.3930 139.8959 3.0179 -2.4261 0.0545 0.0000 0.0000 0.0000 4.5778 9.4480 -6.7339 0.5062 27.6307 5.1833 2.0590 -0.3927 7.7192 -0.0000 0.0000 -0.0000
62.5193 38.8774 7.3709 178.0720 52.8343 173.1670 0.0000 0.0000 0.0000 -0.4282 -6.8586 1.4687 -5.5594 -20.3014 13.5996 4.6462 -0.1447 -8.5622 0.0000 0.0000 -0.0000 0.0000 0.0000 0.0000 2.1222 -0.4268 -8.1264 15.0587 -5.6657 19.3381 0.0000 0.0000 0.0000 -10.4493 -19.3277 -2.1744 0.0000 0.0000 0.0000 -13.8138 -3.2710 1.4065 -66.6499 -17.5233 28.8236 -0.7184 -28.3783 -2.1696 15.4926 -4.2967 -1.2618 0.0000 0.0000 0.0000 18.7297 0.5983 1.0375 56.9946 26.2243 26.6574 177.2820 45.7584 141.6032 3.0221 -2.1534 0.0641 0.0000 0.0000 0.0000 4.7816 10.2946 -6.1782 1.0558 27.1768 6.0903 1.4811 -0.2861 7.2282 -0.0000 0.0000 -0.0000
62.7310 38.8803 7.2754 177.7930 53.6566 172.6420 0.0000 0.0000 0.0000 -0.4606 -6.7783 2.0530 -5.5749 -19.6245 13.5996 4.5204 -0.1318 -8.8348 0.0000 0.0000 -0.0000 0.0000 0.0000 0.0000 2.1459 -0.2840 -9.8052 14.4670 -5.3689 19.9692 0.0000 0.0000 0.0000 -10.6440 -19.1615 -0.9596 0.0000 0.0000 0.0000 -14.2710 -3.0964 1.3978 -66.4845 -16.5524 29.8167 -0.7149 -26.7936 -3.1754 15.3426 -4.2649 -1.2450 0.0000 0.0000 0.0000 18.9192 0.6875 1.0675 56.6784 24.4130 28.5380 177.3886 46.5524 144.7094 3.0254 -1.8341 0.0756 0.0000 0.0000 0.0000 4.8728 11.2608 -5.6794 1.5242 26.9753 6.8982 1.0859 -0.2128 6.6786 -0.0000 0.0000 -0.0000
62.9354 38.8812 7.1719 177.4550 54.4697 172.0830 0.0000 0.0000 0.0000 -0.5858 -6.7927 2.6427 -5.5005 -18.8154 13.5571 4.4427 -0.1205 -9.1087 0.0000 0.0000 -0.0000 0.0000 0.0000 0.0000 2.4874 -0.0391 -11.1144 13.6658 -4.8367 20.1216 0.0000 0.0000 0.0000 -11.0444 -19.0307 0.4582 0.0000 0.0000 0.0000 -14.9375 -2.9280 1.4012 -66.3916 -15.5085 31.0620 -1.0476 -24.2657 -3.8624 15.1888 -4.5071 -1.2621 0.0000 0.0000 0.0000 19.4177 0.9902 1.1654 55.5503 21.4838 30.0807 177.4705 47.4226 147.1997 3.1052 -1.6671 0.0833 0.0000 0.0000 0.0000 4.9350 12.2245 -5.1235 1.9080 26.7242 7.5664 0.7769 -0.1561 6.0853 -0.0000 0.0000 -0.0000
63.1229 38.8758 7.0710 177.2430 55.1352 171.5680 0.0000 0.0000 0.0000 -0.6994 -6.8470 3.3211 -5.3741 -18.0948 13.4593 4.4618 -0.1114 -9.3778 0.0000 0.0000 -0.0000 0.0000 0.0000 0.0000 3.1171 0.2355 -12.1179 12.6971 -4.2221 20.1093 0.0000 0.0000 0.0000 -11.4617 -19.1012 1.7027 0.0000 0.0000 0.0000 -15.6344 -2.7200 1.3951 -66.1728 -14.6941 27.8499 -3.7892 -20.7662 0.2366 15.1337 -4.5412 -1.2615 0.0000 0.0000 0.0000 20.0397 1.3612 1.2895 54.1058 18.1106 30.9669 177.4856 48.5037 148.4787 3.1849 -1.6640 0.0847 0.0000 0.0000 0.0000 5.0216 13.1745 -4.5940 2.3489 26.1613 8.2706 0.3999 -0.0928 5.5187 -0.0000 0.0000 -0.0000
63.2965 38.8615 6.9767 177.1890 55.5901 171.1220 0.0000 0.0000 0.0000 -0.7562 -6.9113 4.0498 -5.2824 -17.5946 13.4148 4.4899 -0.1015 -9.6694 0.0000 0.0000 -0.0000 0.0000 0.0000 0.0000 3.8223 0.4548 -13.4819 11.7026 -3.7662 20.8292 0.0000 0.0000 0.0000 -11.6104 -19.4365 2.4614 0.0000 0.0000 0.0000 -16.2555 -2.5450 1.3910 -65.5744 -14.1784 15.7906 -9.2167 -15.8122 12.8659 14.8641 -4.1943 -1.1963 0.0000 0.0000 0.0000 20.4348 1.6323 1.3802 53.1162 15.1242 31.2617 177.4881 50.2517 150.1215 3.1072 -1.6160 0.0833 0.0000 0.0000 0.0000 5.0858 14.2379 -4.2043 3.0010 25.3035 9.1945 -0.0558 -0.0220 4.9380 -0.0000 0.0000 -0.0000
63.4643 38.8377 6.8872 177.1520 55.9712 170.6410 0.0000 0.0000 0.0000 -0.8114 -6.9989 4.7563 -5.2570 -17.1528 13.5342 4.4551 -0.0888 -10.0155 0.0000 0.0000 -0.0000 0.0000 0.0000 0.0000 4.4162 0.6572 -15.1336 10.8555 -3.4341 22.1197 0.0000 0.0000 0.0000 -11.5639 -19.8346 2.9669 0.0000 0.0000 0.0000 -16.7982 -2.4063 1.3886 -64.9754 -13.3206 2.3268 -12.7760 -10.0271 26.0160 14.2524 -3.8084 -1.1003 0.0000 0.0000 0.0000 20.6232 1.7380 1.4179 52.7093 12.7292 31.1118 177.5429 52.5709 153.0975 2.8324 -1.3723 0.0808 0.0000 0.0000 0.0000 5.1228 15.4649 -3.8571 3.7465 24.2698 10.2215 -0.5561 0.0502 4.3004 -0.0000 0.0000 -0.0000
63.6242 38.8083 6.8070 177.0500 56.3960 170.0680 0.0000 0.0000 0.0000 -0.8881 -7.0879 5.4115 -5.2902 -16.6528 13.7865 4.3890 -0.0751 -10.3894 0.0000 0.0000 -0.0000 0.0000 0.0000 0.0000 4.8575 0.9210 -16.3644 10.2364 -3.0506 23.0667 0.0000 0.0000 0.0000 -11.5364 -20.1611 3.4863 0.0000 0.0000 0.0000 -17.2805 -2.2159 1.3693 -64.6842 -11.8609 -7.8408 -13.7634 -5.1126 35.6113 13.6766 -3.6584 -1.0374 0.0000 0.0000 0.0000 20.9123 1.7395 1.4325 52.4246 10.6540 30.5707 177.6160 54.6356 155.9825 2.4547 -1.0496 0.0777 0.0000 0.0000 0.0000 5.2048 16.7508 -3.4214 4.3552 23.1267 11.1248 -1.0964 0.1222 3.6823 -0.0000 0.0000 -0.0000
63.7645 38.7777 6.7453 176.9470 56.7522 169.5200 0.0000 0.0000 0.0000 -0.9351 -7.1351 5.9832 -5.3861 -16.2628 14.0697 4.3457 -0.0629 -10.7356 0.0000 0.0000 -0.0000 0.0000 0.0000 0.0000 5.1368 1.2189 -17.1183 9.8704 -2.6548 23.5813 0.0000 0.0000 0.0000 -11.5731 -20.5489 3.8534 0.0000 0.0000 0.0000 -17.7338 -2.0115 1.3435 -64.6439 -10.1748 -14.0610 -13.4304 -1.4314 41.2390 13.4270 -3.6108 -1.0126 0.0000 0.0000 0.0000 21.3011 1.7382 1.4513 52.1823 8.8658 29.6989 177.6284 55.7436 157.0946 2.1653 -0.8873 0.0741 0.0000 0.0000 0.0000 5.3276 17.8304 -2.9940 4.8304 22.0681 11.8696 -1.6232 0.1876 3.1877 -0.0000 0.0000 -0.0000
63.8795 38.7496 6.7006 176.8750 56.8964 169.1240 0.0000 0.0000 0.0000 -0.9616 -7.1700 6.4071 -5.5066 -16.0973 14.3314 4.3341 -0.0525 -11.0390 0.0000 0.0000 -0.0000 0.0000 0.0000 0.0000 5.2258 1.4532 -17.9637 9.7513 -2.4239 24.2349 0.0000 0.0000 0.0000 -11.6752 -21.0451 3.9297 0.0000 0.0000 0.0000 -18.1675 -1.9297 1.3455 -64.6851 -8.6275 -17.0914 -12.6842 1.3704 43.7787 13.2767 -3.4718 -0.9860 0.0000 0.0000 0.0000 21.4953 1.7476 1.4634 52.3882 7.6531 28.7411 177.6038 55.9084 156.8966 2.0895 -0.9545 0.0710 0.0000 0.0000 0.0000 5.3725 18.3713 -2.7493 5.3286 21.4697 12.5169 -2.0398 0.2364 2.8273 -0.0000 0.0000 -0.0000
63.9748 38.7287 6.6600 176.7490 56.9211 168.8350 0.0000 0.0000 0.0000 -1.0677 -7.2687 6.6776 -5.5465 -15.9468 14.5451 4.3465 -0.0433 -11.3088 0.0000 0.0000 -0.0000 0.0000 0.0000 0.0000 5.2083 1.5911 -18.9333 9.7450 -2.3397 24.9284 0.0000 0.0000 0.0000 -11.9323 -21.4363 4.0011 0.0000 0.0000 0.0000 -18.4787 -1.9392 1.3635 -64.7426 -7.1176 -18.7554 -12.0044 3.7207 45.6743 12.9115 -3.3051 -0.9405 0.0000 0.0000 0.0000 21.4815 1.6834 1.4449 53.0213 7.1783 28.0469 177.6170 55.4844 156.7408 2.1043 -1.0809 0.0680 0.0000 0.0000 0.0000 5.2873 18.3644 -2.6464 5.8367 21.4329 13.0241 -2.3192 0.2671 2.5561 -0.0000 0.0000 -0.0000
64.0541 38.7187 6.6182 176.5160 57.0226 168.5360 0.0000 0.0000 0.0000 -1.2860 -7.4350 6.8791 -5.4556 -15.5957 14.6661 4.3832 -0.0358 -11.5242 0.0000 0.0000 -0.0000 0.0000 0.0000 0.0000 5.2888 1.6875 -19.5173 9.6083 -2.2036 25.1053 0.0000 0.0000 0.0000 -12.3190 -21.5935 4.2906 0.0000 0.0000 0.0000 -18.5234 -1.8770 1.3502 -64.8656 -5.5162 -20.0202 -11.4701 5.2484 48.4552 12.4077 -3.2696 -0.8988 0.0000 0.0000 0.0000 21.5723 1.5010 1.3984 53.4979 7.4070 27.7195 177.6570 54.7114 156.7067 1.9696 -1.0776 0.0631 0.0000 0.0000 0.0000 5.1688 18.2473 -2.5088 6.1808 21.5843 13.3147 -2.5168 0.2882 2.3704 -0.0000 0.0000 -0.0000
64.1099 38.7182 6.5868 176.2440 57.2078 168.2220 0.0000 0.0000 0.0000 -1.5228 -7.5899 7.0512 -5.3161 -15.1616 14.6857 4.4266 -0.0313 -11.6508 0.0000 0.0000 -0.0000 0.0000 0.0000 0.0000 5.5339 1.7792 -19.6810 9.2622 -1.9685 24.9194 0.0000 0.0000 0.0000 -12.6202 -21.6168 4.5397 0.0000 0.0000 0.0000 -18.3432 -1.7559 1.3110 -65.0314 -4.0978 -20.9778 -10.9646 5.0099 51.8208 12.0513 -3.3849 -0.8832 0.0000 0.0000 0.0000 21.8310 1.2724 1.3463 53.6125 8.3238 27.5365 177.6754 53.7928 156.2375 1.6562 -0.9639 0.0542 0.0000 0.0000 0.0000 5.1028 18.3572 -2.3124 6.2874 21.6029 13.4063 -2.6705 0.3056 2.3084 -0.0000 0.0000 -0.0000
64.1339 38.7231 6.5778 176.0160 57.3198 168.0160 0.0000 0.0000 0.0000 -1.6857 -7.6796 7.1117 -5.2292 -14.9026 14.6550 4.4446 -0.0297 -11.6900 0.0000 0.0000 -0.0000 0.0000 0.0000 0.0000 5.7604 1.8379 -19.8663 8.9151 -1.7934 24.9409 0.0000 0.0000 0.0000 -12.7200 -21.5604 4.4538 0.0000 0.0000 0.0000 -18.1887 -1.7666 1.3061 -65.1189 -3.1621 -21.8669 -10.4344 4.9344 54.3920 11.9082 -3.5389 -0.8869 0.0000 0.0000 0.0000 21.9553 1.0798 1.2975 53.7874 9.7797 27.3533 177.6838 52.9667 155.6990 1.3756 -0.8984 0.0450 0.0000 0.0000 0.0000 5.0557 18.5609 -2.2004 6.2289 21.5595 13.3534 -2.7541 0.3168 2.3767 -0.0000 0.0000 -0.0000
64.1311 38.7309 6.5893 175.8620 57.2770 168.0030 0.0000 0.0000 0.0000 -1.7662 -7.7174 6.9920 -5.2001 -14.8837 14.6198 4.4404 -0.0283 -11.6702 0.0000 0.0000 -0.0000 0.0000 0.0000 0.0000 5.8196 1.8506 -20.1052 8.7674 -1.7475 25.0601 0.0000 0.0000 0.0000 -12.7172 -21.4157 4.1407 0.0000 0.0000 0.0000 -18.2227 -1.9698 1.3582 -65.0766 -2.6281 -22.7066 -9.9435 4.8990 55.6405 11.7981 -3.6035 -0.8845 0.0000 0.0000 0.0000 21.7939 0.9258 1.2472 54.2304 11.2869 27.2682 177.7163 52.2664 155.6805 1.2184 -0.9178 0.0386 0.0000 0.0000 0.0000 4.9808 18.6289 -2.2507 6.0493 21.5661 13.1621 -2.7250 0.3159 2.5172 -0.0000 0.0000 -0.0000
64.1138 38.7402 6.6123 175.7850 57.1347 168.1390 0.0000 0.0000 0.0000 -1.7854 -7.7279 6.7674 -5.1889 -15.0018 14.5737 4.4601 -0.0293 -11.6082 0.0000 0.0000 -0.0000 0.0000 0.0000 0.0000 5.8536 1.8619 -20.0516 8.6913 -1.6984 24.8093 0.0000 0.0000 0.0000 -12.6634 -21.3864 3.7952 0.0000 0.0000 0.0000 -18.3187 -2.1997 1.4202 -64.9591 -2.3269 -23.1985 -9.7070 4.8994 55.7091 11.6080 -3.5141 -0.8614 0.0000 0.0000 0.0000 21.5629 0.8205 1.2082 54.5786 12.3811 27.2909 177.7529 51.5046 155.6993 1.0447 -0.9134 0.0320 0.0000 0.0000 0.0000 4.9191 18.5997 -2.3750 5.7369 21.5318 12.8403 -2.5866 0.3014 2.6564 -0.0000 0.0000 -0.0000
64.0872 38.7501 6.6432 175.7850 56.9590 168.3320 0.0000 0.0000 0.0000 -1.7475 -7.7099 6.5565 -5.1893 -15.1902 14.4852 4.5288 -0.0344 -11.5062 0.0000 0.0000 -0.0000 0.0000 0.0000 0.0000 6.0867 1.9080 -19.7251 8.4305 -1.5407 24.3298 0.0000 0.0000 0.0000 -12.4826 -21.7284 3.3451 0.0000 0.0000 0.0000 -18.2900 -2.2963 1.4427 -64.8159 -2.3323 -22.9731 -9.9096 4.9228 54.9330 11.4508 -3.3328 -0.8327 0.0000 0.0000 0.0000 21.4232 0.8468 1.2098 54.5981 13.0369 27.2691 177.7556 50.6404 155.0849 0.8407 -0.8840 0.0247 0.0000 0.0000 0.0000 4.9166 18.5412 -2.4736 5.3434 21.4581 12.4442 -2.3994 0.2803 2.7776 -0.0000 0.0000 -0.0000
64.0467 38.7606 6.6834 175.8600 56.7556 168.5770 0.0000 0.0000 0.0000 -1.6535 -7.6598 6.3590 -5.2003 -15.4550 14.3427 4.6058 -0.0413 -11.3695 0.0000 0.0000 -0.0000 0.0000 0.0000 0.0000 6.4543 1.9536 -19.3935 8.0671 -1.3757 23.9890 0.0000 0.0000 0.0000 -12.2422 -22.2911 2.6959 0.0000 0.0000 0.0000 -18.2139 -2.2665 1.4312 -64.6199 -2.7028 -21.9761 -10.5431 4.9630 53.4643 11.4951 -3.1815 -0.8222 0.0000 0.0000 0.0000 21.2372 1.0029 1.2452 54.5474 13.4701 27.2547 177.7422 49.8852 154.2807 0.8040 -0.9692 0.0219 0.0000 0.0000 0.0000 4.9451 18.3177 -2.5846 4.9782 21.5509 12.0371 -2.2222 0.2603 2.9241 -0.0000 0.0000 -0.0000
63.9888 38.7712 6.7317 176.0130 56.5028 168.9200 0.0000 0.0000 0.0000 -1.5203 -7.5962 6.1154 -5.1974 -15.7914 14.1771 4.6334 -0.0467 -11.2143 0.0000 0.0000 -0.0000 0.0000 0.0000 0.0000 6.6841 1.9363 -18.9439 7.9471 -1.3533 23.5761 0.0000 0.0000 0.0000 -12.1667 -22.6484 1.9696 0.0000 0.0000 0.0000 -18.2934 -2.2067 1.4206 -64.3630 -3.2519 -20.5335 -11.4173 5.0611 51.3243 11.7334 -3.0876 -0.8311 0.0000 0.0000 0.0000 20.9014 1.1088 1.2600 54.6350 13.7651 27.5257 177.7501 49.3690 154.0302 0.8953 -1.1552 0.0223 0.0000 0.0000 0.0000 4.9632 17.8620 -2.7958 4.6951 21.8328 11.6661 -2.0557 0.2419 3.1288 -0.0000 0.0000 -0.0000
